<svg xmlns="http://www.w3.org/2000/svg" width="720" height="120" viewBox="0 0 720 120">
  <defs>
    <!-- Metallic Gold Gradient -->
    <linearGradient id="goldGrad" x1="0%" y1="0%" x2="100%" y2="100%">
      <stop offset="0%" stop-color="#FFE259" />
      <stop offset="50%" stop-color="#FFA751" />
      <stop offset="100%" stop-color="#b8860b" />
    </linearGradient>
  </defs>
  
  <style>
    @keyframes scrollLeft {
      0% { transform: translateX(0); }
      100% { transform: translateX(-720px); }
    }
    @keyframes scrollRight {
      0% { transform: translateX(-720px); }
      100% { transform: translateX(0); }
    }
    .marquee-bg { fill: #141210; rx: 8px; stroke: #2e2a24; stroke-width: 1.5; }
    
    /* Golden Styled Tags */
    .tag { fill: #1a160e; stroke: url(#goldGrad); stroke-width: 1.5; rx: 6px; }
    .tag-text { font-family: 'JetBrains Mono', 'Fira Code', monospace; font-size: 11px; fill: url(#goldGrad); font-weight: 700; text-anchor: middle; }
    
    .scroll-container-left {
      animation: scrollLeft 18s linear infinite;
    }
    .scroll-container-right {
      animation: scrollRight 18s linear infinite;
    }
  </style>
  
  <!-- Background Card -->
  <rect width="720" height="120" class="marquee-bg" />
  
  <!-- Row 1: Left scrolling (x: 0 to -720) -->
  <g transform="translate(0, 20)">
    <g class="scroll-container-left">
      <!-- Set 1 -->
      <g transform="translate(0, 0)">
        <rect x="10" y="0" width="110" height="30" class="tag" />
        <text x="65" y="19" class="tag-text">Python</text>
        
        <rect x="130" y="0" width="110" height="30" class="tag" />
        <text x="185" y="19" class="tag-text">GenAI / LLMs</text>
        
        <rect x="250" y="0" width="110" height="30" class="tag" />
        <text x="305" y="19" class="tag-text">Java</text>
        
        <rect x="370" y="0" width="110" height="30" class="tag" />
        <text x="425" y="19" class="tag-text">MySQL</text>
        
        <rect x="490" y="0" width="110" height="30" class="tag" />
        <text x="545" y="19" class="tag-text">C++</text>
        
        <rect x="610" y="0" width="110" height="30" class="tag" />
        <text x="665" y="19" class="tag-text">RAG Systems</text>
      </g>
      <!-- Set 2 (Duplicate for seamless loop) -->
      <g transform="translate(720, 0)">
        <rect x="10" y="0" width="110" height="30" class="tag" />
        <text x="65" y="19" class="tag-text">Python</text>
        
        <rect x="130" y="0" width="110" height="30" class="tag" />
        <text x="185" y="19" class="tag-text">GenAI / LLMs</text>
        
        <rect x="250" y="0" width="110" height="30" class="tag" />
        <text x="305" y="19" class="tag-text">Java</text>
        
        <rect x="370" y="0" width="110" height="30" class="tag" />
        <text x="425" y="19" class="tag-text">MySQL</text>
        
        <rect x="490" y="0" width="110" height="30" class="tag" />
        <text x="545" y="19" class="tag-text">C++</text>
        
        <rect x="610" y="0" width="110" height="30" class="tag" />
        <text x="665" y="19" class="tag-text">RAG Systems</text>
      </g>
    </g>
  </g>
  
  <!-- Row 2: Right scrolling (x: -720 to 0) -->
  <g transform="translate(0, 70)">
    <g class="scroll-container-right">
      <!-- Set 1 -->
      <g transform="translate(0, 0)">
        <rect x="10" y="0" width="110" height="30" class="tag" />
        <text x="65" y="19" class="tag-text">Docker</text>
        
        <rect x="130" y="0" width="110" height="30" class="tag" />
        <text x="185" y="19" class="tag-text">Git / GitHub</text>
        
        <rect x="250" y="0" width="110" height="30" class="tag" />
        <text x="305" y="19" class="tag-text">Vector DBs</text>
        
        <rect x="370" y="0" width="110" height="30" class="tag" />
        <text x="425" y="19" class="tag-text">Vercel</text>
        
        <rect x="490" y="0" width="110" height="30" class="tag" />
        <text x="545" y="19" class="tag-text">Embeddings</text>
        
        <rect x="610" y="0" width="110" height="30" class="tag" />
        <text x="665" y="19" class="tag-text">Agentic AI</text>
      </g>
      <!-- Set 2 (Duplicate for seamless loop) -->
      <g transform="translate(720, 0)">
        <rect x="10" y="0" width="110" height="30" class="tag" />
        <text x="65" y="19" class="tag-text">Docker</text>
        
        <rect x="130" y="0" width="110" height="30" class="tag" />
        <text x="185" y="19" class="tag-text">Git / GitHub</text>
        
        <rect x="250" y="0" width="110" height="30" class="tag" />
        <text x="305" y="19" class="tag-text">Vector DBs</text>
        
        <rect x="370" y="0" width="110" height="30" class="tag" />
        <text x="425" y="19" class="tag-text">Vercel</text>
        
        <rect x="490" y="0" width="110" height="30" class="tag" />
        <text x="545" y="19" class="tag-text">Embeddings</text>
        
        <rect x="610" y="0" width="110" height="30" class="tag" />
        <text x="665" y="19" class="tag-text">Agentic AI</text>
      </g>
    </g>
  </g>
</svg>
